<svg xmlns="http://www.w3.org/2000/svg" width="800" height="100">
  <!-- Partner Logo 1 -->
  <g transform="translate(0, 0)">
    <rect x="10" y="10" width="140" height="80" rx="5" fill="none" stroke="#8e8e93" stroke-width="2" opacity="0.7" />
    <text x="80" y="55" font-family="Arial" font-size="16" font-weight="bold" text-anchor="middle" fill="#8e8e93">TECH CORP</text>
    <path d="M40 40 L60 60 M60 40 L40 60" stroke="#8e8e93" stroke-width="3" />
  </g>
  
  <!-- Partner Logo 2 -->
  <g transform="translate(160, 0)">
    <rect x="10" y="10" width="140" height="80" rx="40" fill="none" stroke="#8e8e93" stroke-width="2" opacity="0.7" />
    <circle cx="80" cy="50" r="25" fill="none" stroke="#8e8e93" stroke-width="3" />
    <text x="80" y="55" font-family="Arial" font-size="14" font-weight="bold" text-anchor="middle" fill="#8e8e93">SECUREPLUS</text>
  </g>
  
  <!-- Partner Logo 3 -->
  <g transform="translate(320, 0)">
    <rect x="10" y="10" width="140" height="80" rx="5" fill="none" stroke="#8e8e93" stroke-width="2" opacity="0.7" />
    <polygon points="80,20 100,50 80,80 60,50" fill="none" stroke="#8e8e93" stroke-width="3" />
    <text x="80" y="55" font-family="Arial" font-size="12" font-weight="bold" text-anchor="middle" fill="#8e8e93">DIAMOND SECURE</text>
  </g>
  
  <!-- Partner Logo 4 -->
  <g transform="translate(480, 0)">
    <rect x="10" y="10" width="140" height="80" rx="5" fill="none" stroke="#8e8e93" stroke-width="2" opacity="0.7" />
    <path d="M40 50 L60 50 L70 30 L80 70 L90 50 L120 50" fill="none" stroke="#8e8e93" stroke-width="3" />
    <text x="80" y="80" font-family="Arial" font-size="12" font-weight="bold" text-anchor="middle" fill="#8e8e93">PULSE SECURITY</text>
  </g>
  
  <!-- Partner Logo 5 -->
  <g transform="translate(640, 0)">
    <rect x="10" y="10" width="140" height="80" rx="5" fill="none" stroke="#8e8e93" stroke-width="2" opacity="0.7" />
    <circle cx="60" cy="50" r="20" fill="none" stroke="#8e8e93" stroke-width="3" />
    <circle cx="100" cy="50" r="20" fill="none" stroke="#8e8e93" stroke-width="3" />
    <text x="80" y="90" font-family="Arial" font-size="12" font-weight="bold" text-anchor="middle" fill="#8e8e93">DUAL SHIELD</text>
  </g>
</svg>