<svg xmlns="http://www.w3.org/2000/svg" viewBox="0 0 512 512" width="400" height="400">
  <defs>
    <linearGradient id="gradient" x1="0%" y1="0%" x2="100%" y2="100%">
      <stop offset="0%" stop-color="#2c6ecf" />
      <stop offset="100%" stop-color="#1a4fa3" />
    </linearGradient>
    <filter id="shadow" x="-20%" y="-20%" width="140%" height="140%">
      <feGaussianBlur in="SourceAlpha" stdDeviation="10" />
      <feOffset dx="0" dy="10" result="offsetblur" />
      <feComponentTransfer>
        <feFuncA type="linear" slope="0.3" />
      </feComponentTransfer>
      <feMerge>
        <feMergeNode />
        <feMergeNode in="SourceGraphic" />
      </feMerge>
    </filter>
  </defs>
  
  <!-- Shield Base -->
  <path d="M256 21.52l-200 80v120c0 135.72 82.52 195.8 200 268.48 117.48-72.68 200-132.76 200-268.48v-120l-200-80z" 
        fill="url(#gradient)" filter="url(#shadow)" />
  
  <!-- Inner Shield -->
  <path d="M256 51.52l-170 68v102c0 115.36 70.14 166.43 170 228.21 99.86-61.78 170-112.85 170-228.21v-102l-170-68z" 
        fill="#ffffff" opacity="0.2" />
  
  <!-- Checkmark -->
  <path d="M216 296.33l-60-60 21.21-21.21L216 253.91l118.79-118.79 21.21 21.21z" 
        fill="#ffffff" />
  
  <!-- Lock Icon -->
  <g transform="translate(206, 160)">
    <rect x="0" y="30" width="100" height="70" rx="10" ry="10" fill="#ffffff" />
    <rect x="25" y="0" width="50" height="50" rx="25" ry="25" fill="none" stroke="#ffffff" stroke-width="12" />
  </g>
</svg>